<?xml version="1.0" standalone="no"?><!DOCTYPE svg PUBLIC "-//W3C//DTD SVG 1.1//EN" "http://www.w3.org/Graphics/SVG/1.1/DTD/svg11.dtd"><svg width="200" height="200" viewBox="0 0 200 200" version="1.1" xmlns="http://www.w3.org/2000/svg" xmlns:xlink="http://www.w3.org/1999/xlink"><defs><style type="text/css"><![CDATA[
@font-face { font-family: ifont; src: url("http://at.alicdn.com/t/font_1442373896_4754455.eot?#iefix") format("embedded-opentype"), url("http://at.alicdn.com/t/font_1442373896_4754455.woff") format("woff"), url("http://at.alicdn.com/t/font_1442373896_4754455.ttf") format("truetype"), url("http://at.alicdn.com/t/font_1442373896_4754455.svg#ifont") format("svg"); }

]]></style></defs><g class="transform-group"><g transform="scale(0.1953125, 0.1953125)"><path d="M512 0.346901c-282.57782 0-511.653099 229.074256-511.653099 511.653099s229.075279 511.653099 511.653099 511.653099c282.578844 0 511.653099-229.074256 511.653099-511.653099S794.57782 0.346901 512 0.346901zM512 909.952524c-219.431641 0-397.952524-178.520883-397.952524-397.952524S292.567335 114.047476 512 114.047476s397.952524 178.520883 397.952524 397.952524S731.431641 909.952524 512 909.952524zM753.257739 481.983359 368.115985 225.222531c-5.490038-3.659343-11.473309-5.319146-17.306154-5.319146-16.307408 0-31.450293 12.963243-31.450293 31.41243l0 513.521656c0 18.447141 15.143908 31.413454 31.450293 31.413454 5.832845 0 11.81407-1.659803 17.306154-5.320169l385.141754-256.760828C771.877819 521.758248 771.877819 494.397087 753.257739 481.983359z" fill="#272636"></path></g></g></svg>