<?xml version="1.0" standalone="no"?><!DOCTYPE svg PUBLIC "-//W3C//DTD SVG 1.1//EN" "http://www.w3.org/Graphics/SVG/1.1/DTD/svg11.dtd"><svg width="200" height="200" viewBox="0 0 200 200" version="1.1" xmlns="http://www.w3.org/2000/svg" xmlns:xlink="http://www.w3.org/1999/xlink"><defs><style type="text/css"><![CDATA[
@font-face { font-family: ifont; src: url("//at.alicdn.com/t/font_1442373896_4754455.eot?#iefix") format("embedded-opentype"), url("//at.alicdn.com/t/font_1442373896_4754455.woff") format("woff"), url("//at.alicdn.com/t/font_1442373896_4754455.ttf") format("truetype"), url("//at.alicdn.com/t/font_1442373896_4754455.svg#ifont") format("svg"); }

]]></style></defs><g class="transform-group"><g transform="scale(0.1953125, 0.1953125)"><path d="M874.130286 149.942857C777.508571 53.248 648.850286 0 512.146286 0c-136.777143 0-265.362286 53.248-361.984 149.942857C53.394286 246.637714 0.073143 375.222857 0.073143 512s53.248 265.435429 149.942857 362.057143C246.710857 970.752 375.222857 1024 512.073143 1024c136.777143 0 265.362286-53.321143 362.203429-150.016C1073.810286 674.450286 1073.810286 349.549714 874.130286 149.942857zM812.690286 812.470857c-80.310857 80.310857-187.172571 124.562286-300.617143 124.562286-113.517714 0-220.306286-44.178286-300.544-124.489143S87.04 625.590857 87.04 512s44.251429-220.306286 124.635429-300.617143C291.84 131.145143 398.628571 86.893714 512.146286 86.893714c113.590857 0 220.306286 44.178286 300.470857 124.489143C978.432 377.124571 978.432 646.802286 812.690286 812.470857zM484.352 274.066286C476.233143 264.484571 464.530286 258.048 450.998857 258.048c-0.073143 0-0.219429 0.073143-0.292571 0.073143C439.442286 258.048 428.178286 262.217143 419.620571 270.848 411.062857 279.405714 406.893714 290.669714 406.893714 301.933714c0 0.073143-0.073143 0.146286-0.073143 0.292571l0 419.474286c0 0.146286 0.073143 0.219429 0.073143 0.365714-0.073143 11.190857 4.096 22.528 12.653714 31.085714 8.484571 8.557714 19.602286 12.8 30.72 12.8 0.073143 0 0.219429-0.073143 0.365714-0.073143 0.073143 0 0.219429 0.073143 0.292571 0.073143 13.531429 0 25.234286-6.436571 33.353143-15.945143L691.565714 542.72C699.684571 534.601143 704.292571 523.483429 704.292571 512c0-11.483429-4.608-22.601143-12.726857-30.72L484.352 274.066286z" fill="#9d55b8"></path></g></g></svg>